<?xml version="1.0" standalone="no"?>
<!DOCTYPE svg PUBLIC "-//W3C//DTD SVG 20010904//EN"
 "http://www.w3.org/TR/2001/REC-SVG-20010904/DTD/svg10.dtd">
<svg version="1.0" xmlns="http://www.w3.org/2000/svg"
 width="1000.000000pt" height="1000.000000pt" viewBox="0 0 1000.000000 1000.000000"
 preserveAspectRatio="xMidYMid meet">
<metadata>
Created by potrace 1.11, written by Peter Selinger 2001-2013
</metadata>
<g transform="translate(0.000000,1000.000000) scale(0.100000,-0.100000)"
fill="#000000" stroke="none">
<path d="M8018 9681 c-17 -6 -44 -36 -128 -142 -115 -144 -217 -234 -330 -290
-107 -53 -208 -56 -351 -10 -143 46 -147 46 -262 -53 -163 -140 -303 -211
-433 -219 -79 -5 -140 14 -249 79 -51 30 -103 54 -118 54 -37 0 -166 -128
-236 -233 -28 -43 -51 -80 -51 -82 0 -8 -80 -137 -114 -183 -76 -105 -210
-188 -391 -245 -164 -51 -202 -51 -381 2 -175 52 -215 59 -313 56 -65 -2 -88
-8 -131 -31 -85 -46 -123 -98 -154 -211 -43 -154 -168 -442 -243 -561 -81
-129 -186 -211 -281 -219 -49 -5 -75 1 -180 35 -153 52 -258 103 -305 149 -42
41 -52 67 -44 125 7 54 74 122 177 180 95 53 112 75 113 142 1 104 -39 142
-158 150 -107 7 -143 15 -188 39 -66 37 -97 111 -101 240 -3 92 -18 130 -66
171 -55 46 -66 40 -165 -84 -37 -47 -75 -95 -85 -106 -43 -51 -123 -180 -199
-318 -44 -81 -81 -150 -81 -153 0 -8 -57 -87 -86 -120 -56 -63 -62 -64 -284
-49 -102 6 -128 -18 -116 -106 14 -109 49 -173 123 -225 166 -117 210 -217
178 -406 -16 -89 -8 -112 55 -162 86 -68 86 -134 0 -191 -79 -52 -155 -39
-267 47 -29 23 -59 39 -66 36 -8 -3 -26 -29 -41 -58 -43 -82 -152 -230 -207
-280 -93 -86 -216 -137 -324 -133 -146 5 -241 43 -479 193 -71 44 -133 81
-137 81 -5 0 -19 -10 -30 -21 -31 -31 -19 -93 33 -188 60 -106 60 -106 41
-169 -9 -32 -18 -61 -20 -67 -22 -75 -22 -153 -1 -193 11 -22 16 -23 68 -17
143 19 305 -22 374 -94 37 -38 57 -106 43 -146 -33 -94 -132 -204 -278 -307
-101 -71 -124 -106 -117 -173 3 -24 14 -55 24 -69 11 -15 77 -61 148 -104 148
-89 176 -120 176 -194 0 -26 -9 -72 -20 -101 l-20 -54 31 -79 c32 -79 63 -198
74 -284 4 -25 8 -56 11 -70 6 -36 6 -197 -1 -250 -18 -141 -90 -294 -180 -385
-119 -121 -225 -159 -480 -171 -66 -3 -126 -7 -134 -10 -21 -7 -9 -127 19
-194 52 -122 220 -353 381 -523 l84 -88 85 -3 c87 -3 148 -21 205 -60 198
-133 330 -404 321 -661 -4 -125 -29 -197 -91 -259 -41 -42 -130 -86 -175 -86
-25 0 -60 -46 -60 -80 0 -30 37 -76 73 -89 32 -12 75 -18 182 -26 151 -10 314
-29 400 -45 307 -61 353 -74 522 -146 193 -83 302 -154 437 -287 104 -102 110
-116 132 -352 10 -113 16 -125 61 -137 50 -13 235 51 378 129 33 19 107 57
164 86 92 46 112 52 165 52 54 0 70 -5 141 -46 81 -47 150 -85 260 -145 137
-74 289 -101 369 -65 59 26 90 62 136 161 60 126 72 146 117 194 46 48 153
104 248 129 120 32 149 29 295 -33 222 -95 321 -180 429 -367 23 -40 49 -76
57 -81 9 -5 37 -7 62 -4 37 3 66 -3 137 -31 225 -88 262 -94 283 -40 9 24 36
167 33 175 -4 10 73 217 104 279 95 194 258 352 460 448 81 38 195 82 195 75
0 -2 9 0 19 6 11 5 86 27 169 49 202 53 196 49 189 125 -3 33 -8 72 -11 86
-23 112 -46 278 -42 299 3 14 9 43 12 65 3 21 8 48 10 60 3 11 9 42 14 68 5
27 16 61 24 77 19 36 118 157 148 181 31 24 88 39 174 44 119 8 162 26 261
111 61 53 91 108 100 183 13 109 82 194 252 306 72 48 161 117 198 153 138
133 247 210 429 302 45 23 86 47 92 54 6 7 13 49 15 94 5 75 4 84 -20 115 -58
76 -91 189 -131 443 -15 99 -19 110 -39 113 -19 3 -23 -4 -33 -55 -19 -91
-109 -372 -140 -434 -67 -137 -183 -231 -321 -260 -64 -14 -239 -18 -298 -7
-51 9 -159 85 -222 156 -23 26 -55 75 -71 109 -27 57 -30 72 -30 170 0 118 -6
138 -40 146 -56 14 -101 214 -68 301 9 24 49 43 77 38 9 -2 12 14 9 55 -5 113
24 164 111 189 59 17 59 17 83 159 16 93 45 171 81 220 54 74 68 113 63 178
-3 32 -11 73 -18 91 -13 32 -15 32 -80 34 -37 1 -72 4 -77 8 -19 12 -49 88
-49 127 0 53 30 79 121 107 109 32 138 75 105 153 -11 28 -142 190 -214 267
-53 55 -105 152 -119 220 -7 33 -4 118 6 163 30 131 139 278 244 330 31 15 95
36 144 48 48 11 93 22 98 23 72 19 107 66 109 144 l1 57 -56 18 c-142 45 -143
107 -3 232 112 100 153 122 290 150 43 9 80 17 81 19 2 2 5 29 8 62 7 85 13
107 46 173 27 53 30 70 32 167 2 90 -1 109 -13 111 -23 4 -256 -188 -333 -274
-22 -24 -46 -29 -62 -14 -6 5 -50 12 -100 16 -49 4 -100 8 -112 10 -12 2 -28
-4 -36 -13 -24 -26 -40 -107 -33 -160 22 -158 22 -154 -23 -190 -23 -18 -39
-37 -36 -42 3 -5 1 -11 -4 -14 -4 -3 -11 -29 -15 -58 -15 -110 -18 -123 -32
-135 -21 -16 -233 -54 -267 -48 -36 7 -75 32 -108 70 -14 17 -37 42 -50 58
-27 30 -43 33 -144 22 -165 -17 -250 -11 -350 24 l-53 19 -11 -47 c-6 -25 -13
-62 -15 -82 -12 -82 -53 -134 -141 -178 -123 -61 -223 -2 -299 176 -16 37 -41
88 -56 113 -19 33 -25 57 -24 87 3 51 10 92 19 116 13 32 -5 65 -57 104 -65
47 -83 55 -113 47 -33 -8 -56 -63 -61 -147 -7 -105 -11 -117 -37 -117 -25 0
-37 -6 -154 -75 -46 -26 -93 -47 -106 -47 -13 0 -46 15 -73 34 -96 66 -116 72
-259 73 -107 0 -135 4 -161 19 -44 26 -91 101 -121 192 -23 69 -27 96 -27 219
-1 77 2 152 6 167 28 113 170 252 338 330 52 25 79 31 145 33 82 2 103 -3 311
-83 73 -28 111 -22 184 26 80 54 126 66 225 59 71 -6 106 -15 206 -55 24 -9
30 -7 60 25 53 55 82 62 257 65 103 2 165 8 180 16 13 8 48 64 88 144 92 186
163 288 292 423 155 161 201 268 228 529 2 17 6 92 10 168 5 126 5 137 -13
146 -10 5 -26 7 -35 3z m-2992 -2814 c161 -22 412 -74 519 -108 91 -28 127
-40 200 -67 288 -109 521 -237 767 -424 99 -75 327 -300 407 -402 61 -77 161
-220 161 -230 0 -2 20 -39 45 -81 97 -163 155 -294 225 -506 36 -108 81 -273
94 -344 27 -141 57 -335 63 -405 15 -160 8 -563 -13 -661 -2 -13 -7 -40 -10
-59 -15 -95 -68 -290 -109 -406 -105 -289 -288 -601 -471 -799 -109 -119 -257
-264 -344 -339 -88 -75 -295 -215 -435 -293 -188 -105 -491 -231 -619 -258
-11 -3 -40 -11 -65 -19 -66 -22 -200 -56 -241 -62 -93 -13 -181 -24 -340 -40
-184 -19 -477 6 -715 61 -308 72 -711 251 -960 428 -287 204 -544 455 -717
698 -63 89 -184 303 -245 434 -93 201 -174 482 -208 720 -34 239 -34 552 1
845 22 191 98 486 160 629 153 349 316 595 548 827 233 232 371 342 593 475
128 76 346 186 455 230 169 68 417 137 592 164 115 18 507 13 662 -8z"/>
<path d="M9212 5235 c-28 -25 -47 -53 -62 -93 -29 -76 -50 -122 -72 -154 -23
-33 -23 -51 2 -130 20 -66 83 -173 107 -182 26 -10 43 7 58 58 13 47 17 70 31
181 9 78 27 151 50 214 29 76 30 103 6 124 -30 28 -74 21 -120 -18z"/>
</g>
</svg>
