<?xml version="1.0" standalone="no"?>
<!DOCTYPE svg PUBLIC "-//W3C//DTD SVG 20010904//EN"
 "http://www.w3.org/TR/2001/REC-SVG-20010904/DTD/svg10.dtd">
<svg version="1.0" xmlns="http://www.w3.org/2000/svg"
 width="1676.000000pt" height="1676.000000pt" viewBox="0 0 1676.000000 1676.000000"
 preserveAspectRatio="xMidYMid meet">
<metadata>
Created by potrace 1.11, written by Peter Selinger 2001-2013
</metadata>
<g transform="translate(0.000000,1676.000000) scale(0.100000,-0.100000)"
fill="#000000" stroke="none">
<path d="M10011 12873 c-1 -2139 -3 -3915 -5 -3948 -11 -160 -16 -204 -37
-335 -5 -30 -11 -70 -14 -88 -2 -18 -7 -43 -11 -55 -8 -24 -9 -28 -17 -70 -7
-33 -16 -65 -26 -92 -4 -11 -19 -54 -33 -95 -36 -103 -52 -144 -59 -150 -4 -3
-10 -20 -14 -37 -3 -18 -10 -33 -13 -33 -4 0 -23 -31 -42 -68 -19 -37 -39 -72
-45 -79 -5 -7 -15 -19 -22 -27 -6 -7 -9 -17 -6 -20 4 -3 2 -6 -4 -6 -6 0 -23
-19 -38 -42 -34 -52 -187 -208 -203 -208 -7 0 -12 -4 -12 -10 0 -5 -6 -10 -14
-10 -8 0 -16 -7 -20 -15 -3 -8 -12 -15 -21 -15 -8 0 -15 -4 -15 -9 0 -5 -17
-17 -37 -26 -21 -10 -50 -26 -65 -36 -52 -37 -260 -113 -368 -134 -8 -2 -17
-4 -20 -5 -3 -1 -8 -2 -11 -2 -3 0 -23 -3 -45 -9 -21 -5 -59 -12 -84 -15 -25
-3 -56 -8 -70 -11 -43 -9 -452 -11 -510 -3 -30 5 -77 11 -105 14 -40 4 -152
26 -200 40 -5 2 -23 6 -40 10 -16 4 -37 10 -45 13 -8 3 -19 7 -25 9 -18 4
-149 61 -175 75 -38 22 -142 89 -156 102 -7 7 -31 28 -55 47 -23 19 -50 43
-58 54 -9 10 -29 33 -44 50 -15 17 -40 49 -55 71 -15 22 -30 42 -34 43 -5 2
-8 8 -8 14 0 5 -13 28 -28 51 -66 98 -195 410 -217 526 -2 9 -4 18 -6 21 -1 3
-3 10 -4 15 -1 6 -4 17 -8 25 -5 14 -33 134 -41 177 -9 46 -18 100 -21 124 -1
15 -5 31 -8 35 -3 5 -8 43 -12 84 -4 41 -9 78 -11 82 -2 3 -7 37 -9 75 -3 37
-7 84 -10 103 -2 19 -5 56 -6 83 -2 43 -4 47 -28 48 -35 0 -3137 0 -3179 0
l-33 -1 6 -97 c11 -207 15 -260 20 -313 4 -30 8 -82 11 -115 2 -33 6 -73 9
-90 2 -16 7 -52 10 -80 17 -157 26 -219 38 -271 3 -12 8 -45 12 -75 4 -30 11
-74 17 -99 5 -25 11 -54 13 -65 14 -77 23 -120 25 -120 1 0 3 -11 5 -25 1 -14
17 -81 35 -150 17 -69 33 -133 35 -143 2 -9 7 -22 10 -27 3 -5 8 -18 10 -27
10 -49 51 -186 72 -243 3 -8 7 -19 9 -25 1 -5 17 -48 34 -95 18 -47 39 -103
47 -124 8 -22 23 -60 35 -85 11 -25 29 -66 40 -91 52 -116 185 -377 198 -390
3 -3 11 -16 18 -30 22 -44 64 -114 88 -147 13 -17 24 -35 24 -38 0 -4 6 -13
13 -20 30 -34 35 -43 30 -49 -4 -3 -1 -6 5 -6 7 0 12 -7 12 -15 0 -8 3 -15 8
-15 4 0 18 -17 32 -38 14 -20 35 -48 47 -62 13 -14 23 -28 23 -31 0 -3 9 -17
21 -30 12 -13 35 -41 52 -63 50 -61 109 -128 145 -165 17 -18 32 -38 32 -44 0
-6 2 -8 5 -6 2 3 55 -45 117 -106 62 -60 133 -126 157 -145 24 -19 50 -40 56
-47 31 -30 240 -183 251 -183 6 0 14 -7 18 -15 3 -8 12 -15 21 -15 8 0 15 -4
15 -10 0 -5 7 -10 15 -10 8 0 15 -4 15 -9 0 -5 14 -14 30 -21 17 -7 30 -16 30
-21 0 -5 6 -9 13 -9 7 0 28 -11 47 -24 19 -13 67 -40 105 -61 39 -21 89 -48
112 -61 24 -13 43 -21 43 -18 0 3 12 -3 27 -14 16 -11 45 -25 65 -31 21 -7 40
-17 43 -22 4 -5 15 -9 26 -9 10 0 19 -4 19 -9 0 -4 20 -14 45 -21 25 -7 45
-16 45 -20 0 -4 6 -7 13 -7 6 -1 37 -11 67 -23 30 -12 60 -22 65 -23 6 -2 15
-5 20 -9 6 -3 55 -20 110 -37 55 -17 109 -35 120 -40 16 -7 95 -30 125 -37 21
-4 68 -17 80 -21 8 -3 22 -7 30 -8 8 -2 26 -6 40 -10 14 -4 33 -8 43 -8 9 -1
17 -4 17 -7 0 -4 10 -6 23 -5 12 1 27 -1 32 -5 6 -5 26 -9 45 -11 19 -2 40 -5
45 -8 6 -3 15 -6 20 -7 47 -8 84 -14 105 -19 24 -5 54 -10 123 -20 19 -2 40
-6 48 -9 8 -3 41 -7 74 -10 33 -4 71 -8 85 -10 64 -11 109 -17 169 -21 36 -3
89 -8 116 -11 28 -3 93 -7 145 -10 52 -3 122 -7 155 -9 85 -6 653 -6 755 -1
166 10 365 24 420 31 19 2 60 7 90 10 30 3 62 8 70 10 8 2 43 7 77 10 34 3 72
8 85 11 13 2 39 7 58 10 19 3 85 14 145 26 147 27 137 25 218 43 12 3 33 7 47
10 14 3 55 13 93 24 37 11 70 20 72 20 3 1 6 1 8 2 1 0 9 2 17 4 8 1 35 9 60
16 25 7 47 13 50 14 3 0 28 9 56 18 28 10 59 19 70 22 37 7 179 60 182 68 2 4
8 5 12 2 5 -3 17 -2 27 3 27 14 77 35 203 88 63 27 117 52 118 56 2 4 12 8 23
8 10 0 19 5 19 10 0 6 9 10 19 10 11 0 23 5 26 10 4 6 11 8 16 5 5 -4 9 -3 9
2 0 4 49 33 108 63 59 30 109 57 112 61 3 3 55 36 115 74 61 37 133 85 162
107 29 21 55 38 58 38 3 0 14 8 24 18 11 9 32 27 48 39 178 139 243 195 387
339 111 112 179 186 231 251 17 23 59 75 98 123 16 19 149 209 162 231 23 39
91 153 106 177 46 80 88 162 81 162 -4 0 -2 4 4 8 6 4 22 30 34 57 12 28 36
79 53 115 16 36 45 106 64 155 19 50 41 105 49 123 9 18 17 43 20 55 7 37 38
122 47 128 5 3 8 9 7 13 -3 11 10 65 46 188 30 107 41 153 48 198 1 9 5 21 10
28 4 6 5 12 2 12 -2 0 -1 14 4 32 5 17 12 47 15 67 3 20 8 48 11 61 3 14 8 41
10 60 8 50 12 75 14 75 1 0 4 18 6 40 5 42 12 80 14 80 0 0 3 23 5 50 2 28 6
60 9 73 3 13 8 58 11 100 4 42 8 91 11 107 2 17 6 68 9 115 3 47 8 121 12 165
3 44 6 1861 7 4038 l2 3957 -1617 0 -1617 0 -1 -3887z"/>
<path d="M3650 3245 c0 -6 -28 -11 -67 -10 l-68 0 0 -1615 0 -1615 4868 -1
4867 -1 0 1617 0 1616 -115 -1 c-70 0 -115 4 -115 10 0 6 -3 6 -8 0 -9 -14
-224 -14 -234 0 -5 7 -8 7 -8 0 0 -14 -230 -14 -230 0 0 6 -3 6 -8 0 -9 -14
-224 -14 -234 0 -5 7 -8 7 -8 0 0 -14 -230 -14 -230 0 0 6 -3 6 -8 0 -9 -14
-232 -14 -232 0 0 6 -3 6 -8 0 -9 -14 -155 -13 -164 0 -5 7 -8 7 -8 0 0 -14
-140 -13 -140 0 0 6 -3 6 -8 0 -9 -14 -224 -14 -234 0 -5 7 -8 7 -8 0 0 -14
-230 -14 -230 0 0 6 -3 6 -8 0 -9 -14 -224 -14 -234 0 -5 7 -8 7 -8 0 0 -14
-230 -14 -230 0 0 6 -3 6 -8 0 -9 -14 -155 -13 -164 0 -5 7 -8 7 -8 0 0 -14
-140 -13 -140 0 0 6 -3 6 -8 0 -9 -14 -224 -14 -234 0 -5 7 -8 7 -8 0 0 -14
-230 -14 -230 0 0 6 -3 6 -8 0 -9 -14 -224 -14 -234 0 -5 7 -8 7 -8 0 0 -14
-230 -14 -230 0 0 6 -3 6 -8 0 -9 -14 -155 -13 -164 0 -5 7 -8 7 -8 0 0 -14
-140 -13 -140 0 0 6 -3 6 -8 0 -9 -14 -224 -14 -234 0 -5 7 -8 7 -8 0 0 -14
-230 -14 -230 0 0 6 -3 6 -8 0 -9 -14 -224 -14 -234 0 -5 7 -8 7 -8 0 0 -14
-230 -14 -230 0 0 6 -3 6 -8 0 -9 -14 -155 -13 -164 0 -5 7 -8 7 -8 0 0 -14
-300 -14 -300 0 0 6 -3 6 -8 0 -9 -14 -175 -13 -184 0 -5 7 -8 6 -8 -1 0 -12
-69 -12 -89 1 -9 5 -12 4 -8 -2 7 -11 -112 -11 -130 0 -7 5 -13 4 -13 0 0 -12
-194 -10 -202 2 -5 7 -8 7 -8 0 0 -14 -230 -14 -230 0 0 6 -3 6 -8 0 -9 -14
-334 -14 -344 0 -5 7 -8 7 -8 0 0 -12 -108 -14 -126 -3 -6 4 -14 5 -18 1 -11
-11 -166 -9 -166 2 0 7 -3 7 -8 0 -8 -12 -111 -14 -128 -3 -6 4 -14 5 -18 1
-10 -11 -56 -9 -56 2 0 7 -3 7 -8 0 -9 -14 -224 -14 -234 0 -5 7 -8 7 -8 0 0
-14 -230 -14 -230 0 0 6 -3 6 -8 0 -9 -14 -224 -14 -234 0 -5 7 -8 7 -8 0 0
-14 -230 -14 -230 0 0 6 -3 6 -8 0 -9 -14 -155 -13 -164 0 -5 7 -8 7 -8 0 0
-14 -242 -14 -252 0 -5 7 -8 7 -8 0 0 -12 -108 -14 -126 -3 -6 4 -14 5 -18 1
-11 -11 -166 -9 -166 2 0 7 -3 7 -8 0 -8 -12 -111 -14 -128 -3 -6 4 -14 4 -18
1 -11 -11 -210 -9 -218 2 -5 7 -8 6 -8 0z"/>
</g>
</svg>
