<?xml version="1.0" encoding="utf-8"?>
<!-- Generator: Adobe Illustrator 22.1.0, SVG Export Plug-In . SVG Version: 6.00 Build 0)  -->
<svg version="1.1" id="Layer_1" xmlns="http://www.w3.org/2000/svg" xmlns:xlink="http://www.w3.org/1999/xlink" x="0px" y="0px"
	 viewBox="0 0 500 500" style="enable-background:new 0 0 500 500;" xml:space="preserve">
<style type="text/css">
	.st0{fill:#FFFFFF;}
</style>
<g>
	<path class="st0" d="M327,123.4c0.1-2.6,0.2-5.2,0.5-7.7c0.1-1.1,0.6-2.2,1-3.3c0.8-2.3,3.6-2.3,5.1-1.1c1.3,1.1,2.7,2,4.1,3.1
		c1.5,1.1,1.4,2.7,1,4.1c-0.8,2.5-1,5.1-0.8,7.7c0,0.4,0.5,0.8,0.7,1.2c0.8,1.5,1.7,2.9,2.3,4.4c1.4,3.6,2.9,7.2,5.8,9.9
		c2.1,2,5.7,3,8.7,1.6c1.9-0.8,3.6-2,5.2-3.2c2.7-2,3.1-5.1,3.5-8.2c0.2-1.5,0.6-3,1-4.6c4.9,2.3,9.8,2.8,14.8,2.6
		c3.2-0.2,6.3-0.5,9.5-0.8c1.5-0.1,2.4,0.6,3.3,1.9c1.4,2.1,2.9,4.1,5.2,5.3c2.3,1.2,4.7,0.8,7.1,0.4c2.8-0.5,5.5-1.2,8.3-1.8
		c0.3-0.1,0.8-0.5,0.8-0.9c0.4-2.4,0.7-4.8,1.1-7.2c0.5-2.4,1.5-4.5,3.9-5.6c0.4-0.2,0.8-1.1,0.7-1.6c-0.2-2-0.4-4-0.8-5.9
		c-0.6-3.1-0.1-6,1.2-8.8c0.2-0.4,0.8-0.8,1.1-0.8c3.4,0.2,6.9,0.5,10.3,0.8c0.6,0.1,1.2,0.4,1.6,0.8c0.7,0.6,1.2,0.4,1.8-0.2
		c2.2-2.2,4.5-4.4,6.8-6.5c2.1-1.8,4.3-3.5,6.5-5.2c1-0.8,2.1-1.7,3.1-2.5c0.9-0.8,1.7-0.5,1.7,0.7c0,3.3,0,6.6-0.4,9.8
		c-0.3,1.8-1.6,3.4-2.4,5.1c-0.4,1-0.8,2.1-0.9,3.2c-0.2,1.8-0.3,3.6-0.4,5.4c0,0.8-0.3,1.1-1.1,1.2c-3,0.6-6,1.2-8.8,2.1
		c-2,0.7-3.9,1.8-5.5,3.1c-2.5,2-4.9,4.3-7.1,6.7c-2.3,2.5-1.9,5.2,1.2,6.9c1.3,0.7,2.9,0.9,4.4,1.4c0.5,0.2,1.2,0.5,1.2,0.8
		c0.3,2.4,0.3,4.7-1.2,6.8c-1.2,1.7-3.1,2.4-5,2.9c-3.2,0.8-6.4,1.4-9.5,2.5c-4.7,1.7-8.1,5-10.7,9.3c-2.5,4.1-3.9,8.5-3.9,13.2
		c0,5.2,2.3,9.5,5.6,13.3c3.4,3.9,6.9,7.8,10.1,11.8c1,1.3,1.6,3,1.8,4.6c0.1,1-0.7,2.3-1.5,3c-1.5,1.4-3.6,1.5-5.5,2.2
		c-1.7,0.7-3.9,1-4.7,3c-0.4,1-0.5,2.3-0.3,3.4c0.3,1.4,0.9,2.8,1.5,4c0.5,1.1,1.6,1.5,2.8,1.4c1.3,0,2.6,0,3.9,0c1.3,0,2,0.7,2.2,2
		c0.3,1.8,0.7,3.6,0.8,5.5c0.1,1.9-0.5,3.7-1.7,5.2c-2.8,3.3-4.5,7.2-5.3,11.5c-0.5,2.8-1,5.7-1.6,8.5c-0.1,0.3-0.6,0.6-1,0.7
		c-1.4,0.5-2.8,0.7-4.1,1.3c-2,0.9-2.7,2.9-3.1,4.9c-0.3,1.4,0,3,0,4.5c0,0.6,0.1,1.3,0.2,2c-0.4-0.1-0.7-0.1-1-0.1
		c-2.2-0.4-3.7,1-4,3.3c-0.5,3.1,0,6,0.7,8.9c0.3,1.3,1,2.6,1.6,3.8c0.2,0.5,0.9,0.9,1.4,1c1.6,0.3,2.1,0.9,2.2,2.5
		c0,2.3,0.1,4.5,0,6.8c-0.1,4.4,1.8,7.9,4.4,11.3c2.4,3.1,5.7,5.1,8.7,7.4c1.1,0.8,2.7,1.1,4.1,1.2c3.2,0.2,6.5,0.2,9.8,0
		c4.5-0.3,8.8-1.5,12.5-4.3c4.5-3.4,7.4-7.9,9.2-13.2c1.4-4,2.7-8.1,3.9-12.2c0.8-2.7,1.3-5.5,1.9-8.2c1.9-0.2,2-0.3,2.3,1.6
		c0.7,4.1,1.2,8.3,2.1,12.4c0.8,3.8,1.6,7.7,3.4,11.2c0.4,0.8,1,1.6,1.6,2.3c1.5,1.7,1.5,3.6,1.1,5.7c-0.2,1.1-0.2,2.3-0.1,3.4
		c0,1-0.5,1.6-1.3,2c-3.8,2-7.7,3.8-11.4,6c-3.3,2-6.4,4.3-9.4,6.8c-2.7,2.3-5,5.1-7.8,7.3c-2.8,2.2-5.9,4.1-8.9,6
		c-3.8,2.4-6.9,5.5-9,9.4c-0.9,1.7-1.2,3.7-1.4,5.6c-0.3,2.9-1.7,5-3.7,6.9c-2.7,2.5-5.6,4.9-9.3,5.8c-1.7,0.4-3.4,0.7-5.2,0.7
		c-3.9,0-7.5,0.6-10.1,3.9c-1.7,2.1-3.6,4.2-5.1,6.5c-0.8,1.2-1.2,2.7-1.5,4.1c-0.6,2.7-1.1,5.5-1.6,8.2c-0.2,1.1-0.5,2.3-0.5,3.5
		c0,1,0.3,2,0.4,3c0.8,4.7,1.6,9.4,2.4,14.2c0.6,3.5,0,4.2-3.4,5.1c-4.7,1.2-9.5,2.4-14.2,3.8c-6.7,2.1-13.1,4.7-18.9,8.9
		c-4.3,3.1-7.9,6.8-11,11.1c-3.7,5.2-6.2,10.9-7.9,16.9c-1,3.4-1.7,7-2.2,10.5c-0.5,3.2-2.3,4-4.9,3.1c-3.7-1.2-7.3-2.7-10.9-4.1
		c-1.3-0.5-2.6-0.9-3.9-1.2c-0.7-0.1-1.5,0-2.1,0.2c-1.5,0.6-2.7,0.3-3.5-1.1c-1.5-2.5-2.8-5.1-4.4-7.4c-3.5-5-8-8.9-13.5-11.5
		c-3-1.4-6-2.7-9-4c-1.3-0.6-2.8-1-4.2-1.1c-1.2-0.1-2.5,0.2-3.7,0.4c-4.5,0.8-8.8,2.3-12.6,4.8c-2.5,1.6-4.5,3.8-5.8,6.4
		c-1.1,2.2-2.1,4.4-3.1,6.7c-1.5,3.5-3.8,6.4-7.6,7.4c-2,0.5-4.4,0.4-6.4,0c-2.7-0.5-5.4-1.4-8-2.5c-2.9-1.3-5.6-3.1-8.5-4.6
		c-3.2-1.8-6.5-3.5-9.7-5.3c-2.1-1.3-4.4-1.3-6.6-0.8c-1.9,0.4-3.8,1.3-5.6,2.2c-4,2-7.8,4.3-11.8,6.3c-3.9,1.9-7.9,3.6-12.2,4.4
		c-0.8,0.2-1.5,0.5-2.2,0.5c-1.7,0.1-3.4-1.2-3.6-2.8c-0.4-2.6-0.7-5.1-0.9-7.7c-0.3-3.5-0.4-6.9-2.4-9.9c-0.9-1.4-2-2.6-3.2-3.7
		c-3-2.7-5.9-5.5-9.1-7.7c-3.3-2.3-6.9-4.1-10.5-5.8c-4-1.8-8.1-3.4-12.3-4.9c-2.5-0.8-5.1-1.2-7.6-1.7c-3.2-0.7-6.3-1.3-9.5-1.9
		c-2-0.4-3.9-0.7-5.9-0.9c-3-0.4-6.1-0.7-9.2-0.9c-3-0.3-5.9-0.4-8.9-0.7c-2.7-0.2-5.4-0.7-7-3.3c-1.5-2.4-0.6-5.1,2-5.7
		c2.9-0.7,5.7-1.4,8-3.4c2.5-2.2,4.1-4.9,4.9-8.1c1.5-6.3,0.7-12.6-1.2-18.7c-1.4-4.5-3.4-8.7-6.2-12.5c-3.3-4.5-7.5-8.2-12.9-10
		c-2.4-0.8-4.9-0.9-7.3-0.6c-1.5,0.1-2.6-0.4-3.4-1.3c-3.1-3.4-6.3-6.7-9.3-10.2c-2.7-3.2-5.2-6.6-7.5-10c-2.5-3.6-4.7-7.4-6.1-11.6
		c-0.5-1.4-0.6-3-0.7-4.5c-0.1-0.8,0.3-1.6,0.6-2.4c0.1-0.2,0.6-0.4,1-0.4c1.8,0,3.7,0.3,5.5,0.2c3.8-0.3,7.7-0.5,11.4-1.3
		c3.8-0.8,7.4-2.6,10.5-5.1c5.2-4.1,8.2-9.5,10-15.8c1.6-5.6,1.8-11.3,1.4-17c-0.3-4.5-1.3-8.9-2.4-13.3c-0.8-3.1-2.2-6-3.2-8.9
		c-0.2-0.5-0.2-1.1,0-1.5c1.5-2.6,2-5.3,1.7-8.2c-0.3-2.1-1.6-3.7-3.3-4.8c-3.3-2.2-6.8-4.1-10.2-6.1c-4.2-2.5-5.2-7.5-2.1-11.2
		c0.8-1,2.2-1.5,3.2-2.3c3.9-2.8,7.8-5.6,10.8-9.4c1.4-1.8,2.7-3.8,3.7-5.8c1.4-2.9,0.1-6.7-2.8-9c-2-1.6-4.2-2.4-6.6-3.2
		c-3.3-1-6.6-1.1-10-1c-0.5,0-1,0.2-1.5,0.3c-2.1,0.7-3.2-0.4-3.6-2.3c-0.5-2.7,0-5.4,0.7-8.1c0.5-1.9,1.2-3.7,1.7-5.6
		c0.1-0.5,0-1.3-0.3-1.8c-1.3-2.4-2.6-4.9-4-7.3c-0.9-1.6-1.1-3.3-0.9-5c0.2-2,1.8-2.8,3.6-1.7c3.1,1.8,6.1,3.7,9,5.7
		c4.4,2.9,9,5.3,14.1,6.5c4.4,1.1,8.9,1.2,13.3-0.4c4.9-1.8,9-4.7,12.2-9c2-2.7,3.9-5.4,5.8-8.2c0.8-1.2,1.3-2.6,2.1-3.9
		c1-1.8,1.6-1.8,3.2-0.5c2.2,1.8,4.4,3.7,7.3,4.6c3.1,1,5.8,0.3,8.1-1.8c1.1-1.1,2.4-2,2.5-3.9c0.1-2.6-1.7-3.8-3.4-5.2
		c-1.7-1.3-3.5-2.5-3.1-5.1c0.2-1.8,0.4-3.5,0.7-5.3c1-6-0.8-11-5.3-15c-1.8-1.6-3.9-2.9-5.9-4.3c-1.5-1-2-2.7-2.6-4.2
		c-1-2.5-1.8-5.2-1.6-8c0.1-1.2,0.5-1.9,1.8-2.4c2.4-0.8,4.7-0.3,7.1-0.2c2.1,0.1,4.3,0.5,6.4,0.3c2.5-0.2,4.1-2.1,5.7-3.9
		c2.9-3.5,4.7-7.6,6.9-11.6c2.4-4.5,4.9-8.9,7.8-13.1c3.3-4.7,7-9,10.5-13.5c1.1-1.4,3.2-1.3,4.8,0.4c1.8,1.9,3.2,4,3,7
		c-0.3,3.1,0,6.2,1.3,9.1c1.1,2.7,3.2,4.5,5.9,5.2c2.9,0.7,5.9,1.1,8.8,1.1c3,0,5.3,1.1,6,4.7c0.5,2.3,0.6,4.6-0.9,6.6
		c-0.6,0.9-1.8,1.4-2.7,1.9c-3.4,1.8-6.5,3.7-9.1,6.6c-2.4,2.7-2.5,6.5,0,9.1c2.1,2.2,4.7,3.7,7.4,4.8c2.9,1.2,5.9,2.4,8.9,3.4
		c2.3,0.8,4.7,1.5,7.1,1.7c3.1,0.3,5.8-1.1,8.2-2.9c4.2-3.2,7.2-7.4,9.5-12.1c2.6-5.2,5-10.6,7.2-16c1.3-3.3,2.3-6.8,3.2-10.2
		c1-3.9,3.6-6.3,6.8-8.2c2.7-1.6,5.8-1.8,8.9-1.7c4.9,0.1,9.4,1.7,13.9,3.1c3.3,1,6.7,2.4,10.2,1.9c3-0.5,6-1.2,8.9-2.2
		c3.1-1,6.1-2.3,9-3.7c5-2.5,8.9-6.3,11.8-11.1c2.2-3.7,4.3-7.6,6.7-11.2c2.7-3.8,5.7-7.5,9.6-10.2c1.7-1.2,3.2-0.3,4.6,0.5
		c2.3,1.3,4.4,2.8,6.7,4c3.9,2,8,2,12.1,1c6.4-1.5,11.6-5.1,16.6-9.1c2.1-1.7,3.9-3.6,6.1-5.2c0.8-0.6,2.3-0.5,3.3-0.2
		c3.1,0.8,6.1,2.2,9.3,2.8c5.2,0.9,10.2,0.2,14.9-2.6c4.4-2.6,8.2-5.9,11.5-9.8c2.5-2.9,4.9-6,7.3-9c0.4-0.5,0.9-1.1,1.4-1.5
		c0.5-0.3,1.2-0.7,1.7-0.6c1,0.2,1.5,1,1.5,2c-0.1,3.7-0.2,7.4-0.4,11c-0.2,3.3-0.6,6.5-1.2,9.8c-0.6,3.4-1.7,6.7-3.3,9.9
		c-1.9,4.1-5.1,7.2-8.1,10.4c-5,5.3-9.3,11.2-12.6,17.8c-1.2,2.4-2.3,4.9-3.5,7.3c-1,2.1-3,2.8-5.1,2.8c-3.7,0.1-7.4,0-11.1,0
		c-2.8,0-5.2,1-7.3,2.9c-0.7,0.7-0.7,2.3-2.3,1.9c-1-0.3-2-0.7-3-1.2c-4-1.7-8.1-2.4-12.4-1.9c-3.2,0.4-5.9,2-8.3,3.9
		c-2.4,1.9-4.7,1.5-7.2,0.6c-3.1-1.2-6.1-2.6-9.2-3.5c-4.9-1.5-9.7-1.2-14.4,0.9c-5.1,2.3-9.2,5.8-13,9.8c-2.6,2.7-3.7,6.2-3.9,10
		c-0.2,3-0.3,6,0,8.9c0.3,2.8,1,5.5,1.8,8.2c1,3.3,2.7,6.2,5.5,8.2c1,0.7,2.5,1.1,3.8,1.2c2.3,0.1,4.6-0.1,6.9-0.3
		c3.8-0.3,7,1.4,10,3.5c1.4,0.9,2.6,2.5,4.5,2c1.4-0.4,2.8-1.2,4.1-2c1.9-1.1,3.8-2.4,5.8-3.4C324.3,123.8,325.8,123.7,327,123.4z
		 M239,417.9c0-0.1,0-0.2,0-0.3c1.6,0,3.1,0.1,4.7,0c4.9-0.4,9.7-1,14.6-1.5c2.4-0.3,4.9-0.6,7.3-1.1c2.7-0.5,5.4-1.2,8-2
		c5.9-1.8,11.8-3.5,17.6-5.6c3.6-1.3,7.1-3.1,10.6-4.7c6.2-2.8,12-6.3,17.8-10c5.9-3.8,11.6-8.1,16.7-12.9c4.3-4,8.4-8.3,12.4-12.6
		c4.2-4.4,7.6-9.4,11-14.5c3.9-5.9,7.2-12,9.9-18.5c1.8-4.4,3.5-8.9,4.9-13.4c1.2-3.7,1.9-7.6,2.7-11.4c0.6-2.9,1.1-5.8,1.5-8.8
		c0.3-2.8,0.5-5.6,0.5-8.4c0.1-5.5,0-11.1,0-16.6c0-2.1-0.2-4.2-0.5-6.2c-0.6-4.5-1.2-9-2.1-13.5c-0.8-4.5-1.7-9.1-2.9-13.5
		c-1.4-5-3.1-9.9-4.8-14.7c-1.4-3.7-2.8-7.5-4.6-11c-2.8-5.4-5.8-10.7-9.1-15.7c-2.5-3.9-5.5-7.6-8.5-11.2c-2.7-3.1-5.6-6-8.6-8.8
		c-2.8-2.7-5.7-5.4-8.8-7.7c-4.4-3.3-9-6.4-13.7-9.3c-4.1-2.5-8.4-4.7-12.7-6.7c-4.3-2-8.7-3.8-13.2-5.5c-3.8-1.4-7.8-2.6-11.7-3.7
		c-3.3-0.9-6.6-1.5-9.9-2.2c-2.5-0.5-5-1.1-7.6-1.5c-2.1-0.3-4.2-0.5-6.3-0.8c-3-0.3-6.1-0.8-9.1-1c-3.7-0.2-7.4,0-11.1,0
		c-4.7-0.1-9.3,0.4-13.9,1.2c-5.7,1-11.4,2.3-16.8,4.2c-4,1.4-8.1,2.6-12,4.3c-5.6,2.5-11.2,5.2-16.6,8.2
		c-5.2,2.9-10.4,6.1-15.2,9.6c-4.6,3.4-8.7,7.3-13,11.1c-2.5,2.2-4.8,4.6-7.2,7c-1.7,1.7-3.4,3.4-4.9,5.3
		c-4.6,5.6-8.9,11.5-12.5,17.8c-2.7,4.8-5.2,9.7-7.3,14.8c-2.6,5.9-4.7,12.1-6,18.4c-0.8,3.7-1.8,7.3-2.3,11
		c-0.8,6-1.4,12.1-1.6,18.2c-0.4,10.2-0.1,20.4,1.7,30.5c1,5.6,2.3,11.1,3.9,16.5c1.5,5.1,3.2,10.2,5.5,15c2.8,6.1,6,12,9.5,17.8
		c2.7,4.4,5.8,8.5,9.1,12.4c3.7,4.4,7.5,8.6,11.7,12.5c4.6,4.2,9.5,8.1,14.4,11.9c5.5,4.2,11.4,7.8,17.6,11c5.9,3.1,12,6,18.3,8.1
		c3.5,1.2,6.9,2.3,10.5,3.4c2.7,0.8,5.4,1.6,8.2,2.1c3.5,0.7,7.1,1.2,10.7,1.6C229.9,417.1,234.5,417.5,239,417.9z"/>
	<path class="st0" d="M467.2,223c2.3-0.1,3.8,2.4,2.9,4.3c-2.1,4.2-3,8.7-3.6,13.3c-0.3,2.5-0.6,5-1,7.4c-0.2,1-0.5,2.1-1,3.1
		c-0.8,1.7-2,2-3.2,0.5c-1.3-1.6-2.5-3.4-3.4-5.2c-0.9-2.1-1.5-4.3-2-6.5c-0.2-0.8,0.1-1.9,0.6-2.5c1.6-2.1,2.6-4.5,3.4-7.1
		c0.9-3.1,2.7-5.5,5.6-7C466.1,223.1,466.7,223.1,467.2,223z"/>
</g>
</svg>
