<?xml version="1.0" encoding="utf-8"?>
<!-- Generator: Adobe Illustrator 21.1.0, SVG Export Plug-In . SVG Version: 6.00 Build 0)  -->
<svg version="1.1" id="Layer_1" xmlns="http://www.w3.org/2000/svg" xmlns:xlink="http://www.w3.org/1999/xlink" x="0px" y="0px"
	 viewBox="0 0 243.6 419.2" style="enable-background:new 0 0 243.6 419.2;" xml:space="preserve">
<style type="text/css">
	.st0{fill:#1E1E1E;}
	.st1{fill:#FF575C;}
</style>
<g>
	<g>
		<path class="st0" d="M80.9,188.8c1.1,16.6,4.6,29.1,10.5,37.5c5.9,8.4,15.9,12.6,29.9,12.6c14.3,0,24.8-4.2,31.4-12.6
			c6.6-8.4,9.9-20.2,9.9-35.4V0h80.9v190.1c0,38.8-10.7,68.2-32.2,88.3c-21.5,20.1-51.5,30.1-90,30.1c-39.1,0-68.7-10.3-88.9-30.8
			C12.2,257.3,1.4,227.6,0,188.8H80.9z"/>
	</g>
	
		<rect x="81.3" y="256.9" transform="matrix(-1.836970e-16 1 -1 -1.836970e-16 500.5504 256.9399)" class="st1" width="80.9" height="243.6"/>
</g>
</svg>
